<svg width="1920" height="1080" viewBox="0 0 1920 1080" fill="none" xmlns="http://www.w3.org/2000/svg">
<g clip-path="url(#clip0_225_67)">
<rect width="1920" height="1080" fill="url(#paint0_linear_225_67)"/>
<ellipse cx="785.044" cy="-365.641" rx="611.789" ry="530.524" fill="url(#paint1_linear_225_67)"/>
<ellipse cx="1698.89" cy="-255.243" rx="522.857" ry="582.656" fill="url(#paint2_linear_225_67)"/>
<ellipse cx="-16.8758" cy="-117.246" rx="512.124" ry="640.922" fill="url(#paint3_linear_225_67)"/>
<ellipse cx="553.304" cy="-64.3684" rx="395.593" ry="499.858" transform="rotate(-16 553.304 -64.3684)" fill="url(#paint4_linear_225_67)" fill-opacity="0.7"/>
<ellipse cx="311.239" cy="-447.217" rx="492.057" ry="431.22" transform="rotate(39 311.239 -447.217)" fill="url(#paint5_linear_225_67)" fill-opacity="0.7"/>
<ellipse cx="1174.51" cy="-235.311" rx="421.659" ry="430.859" transform="rotate(-63 1174.51 -235.311)" fill="url(#paint6_linear_225_67)" fill-opacity="0.7"/>
<ellipse cx="1818.49" cy="-327.309" rx="421.659" ry="430.859" fill="url(#paint7_linear_225_67)" fill-opacity="0.7"/>
<ellipse cx="1367.7" cy="327.413" rx="271.395" ry="275.995" fill="url(#paint8_linear_225_67)" fill-opacity="0.7"/>
<ellipse cx="1088.64" cy="499.143" rx="185.53" ry="180.93" fill="url(#paint9_linear_225_67)" fill-opacity="0.7"/>
<ellipse cx="185.53" cy="180.93" rx="185.53" ry="180.93" transform="matrix(0.913545 0.406737 0.406737 -0.913545 213.12 434.126)" fill="url(#paint10_linear_225_67)" fill-opacity="0.7"/>
<ellipse cx="185.53" cy="180.93" rx="185.53" ry="180.93" transform="matrix(0.913545 0.406737 0.406737 -0.913545 1550.16 894.117)" fill="url(#paint11_linear_225_67)" fill-opacity="0.7"/>
<ellipse cx="282.128" cy="302.061" rx="282.128" ry="302.061" transform="matrix(0.601815 -0.798636 -0.798636 -0.601815 100.575 1045.78)" fill="url(#paint12_linear_225_67)" fill-opacity="0.7"/>
<path d="M1873.69 997.468L1951.89 1069.53L1919.69 752.139L1873.69 715.339L1839.96 634.074L1816.96 539.009L1769.43 500.677V436.278L1735.69 382.612L1692.76 393.345L1720.36 460.811V517.543L1649.83 500.677L1579.3 445.478L1567.03 309.013V252.281L1597.7 158.749L1628.36 85.1507L1617.63 19.2185L1597.7 -11.4476L1628.36 -65.1133V-97.3128L1617.63 -129.512L1579.3 -150.978L1567.03 -166.312L1551.7 -117.246L1597.7 -98.8461V-65.1133L1567.03 -32.9139L1551.7 -11.4476L1522.56 -32.9139L1502.63 6.95206L1579.3 36.0849L1597.7 85.1507L1579.3 129.617L1551.7 106.617L1502.63 36.0849L1488.83 59.0845L1522.56 129.617L1551.7 158.749V186.349L1502.63 233.881V293.68L1522.56 345.813V460.811H1465.83L1419.83 407.145L1329.37 382.612L1258.83 393.345L1215.9 445.478H1344.7L1419.83 500.677L1502.63 539.009L1617.63 552.809L1735.69 597.275L1777.09 643.274V752.139L1849.16 810.404L1873.69 856.404L1849.16 931.536L1873.69 997.468Z" fill="url(#paint13_linear_225_67)"/>
<path d="M27.3901 611.075L-7.87598 634.074L-6.34267 362.679L50.3896 324.347L74.9225 259.948L82.5891 194.016L127.055 174.083L180.721 194.016L205.254 174.083V129.617L225.187 91.2842L255.853 121.95L240.52 149.55L255.853 194.016L199.12 232.348H142.388L117.855 264.548V312.08L94.8555 355.013L50.3896 399.479L41.1898 433.211V491.477L65.7227 554.343L27.3901 611.075Z" fill="url(#paint14_linear_225_67)"/>
<path d="M62.8563 788.939L-7.67578 882.471V1091L62.8563 1035.8L96.589 959.136L84.3226 890.137L141.055 842.605L205.454 810.405L269.853 834.938H352.651L407.85 776.672L412.45 713.807L440.05 666.274L476.849 654.008L467.649 626.408L440.05 634.075V562.01L456.916 520.61L395.584 499.144L403.25 578.876L395.584 654.008L377.184 686.207L363.384 753.673L269.853 772.072L205.454 753.673L141.055 735.273L62.8563 788.939Z" fill="url(#paint15_linear_225_67)"/>
<path d="M787.652 1021V993H805.292V995.6H790.612V1005.4H804.092V1007.8H790.612V1018.4H805.692V1021H787.652ZM808.332 1021L815.812 1010.48L808.532 1000.2H811.732L817.372 1008.36L823.012 1000.2H826.212L818.932 1010.48L826.372 1021H823.212L817.372 1012.6L811.532 1021H808.332ZM830.035 1028.6V1000.2H832.875V1003.76C834.395 1001.12 837.315 999.8 840.395 999.8C845.275 999.8 849.795 1003.12 849.795 1010.6C849.795 1018.04 845.275 1021.4 840.395 1021.4C837.315 1021.4 834.395 1020.08 832.875 1017.44V1028.6H830.035ZM832.755 1010.6C832.755 1016.32 836.315 1019 839.955 1019C843.635 1019 847.115 1016.32 847.115 1010.6C847.115 1004.88 843.635 1002.2 839.955 1002.2C836.315 1002.2 832.755 1004.88 832.755 1010.6ZM862.508 1021.4C856.708 1021.4 852.668 1017.92 852.668 1010.68C852.668 1003.12 856.988 999.8 862.308 999.8C867.668 999.8 871.508 1003.2 871.508 1010.04C871.508 1010.72 871.468 1011.12 871.388 1011.52H855.428C855.668 1016.6 858.148 1019.12 862.548 1019.12C865.068 1019.12 867.548 1018.28 868.628 1015.28H871.228C869.828 1019.88 866.308 1021.4 862.508 1021.4ZM855.468 1009.28H868.788C868.708 1004.6 866.228 1002.08 862.268 1002.08C858.508 1002.08 855.748 1004.4 855.468 1009.28ZM877.992 1009.8V1021H875.152V1000.2H877.992V1004.8H878.072C878.632 1002.76 880.592 1000.04 884.712 1000.04C885.232 1000.04 885.832 1000.08 886.272 1000.24V1002.64C885.792 1002.56 885.312 1002.52 884.792 1002.52C880.432 1002.52 877.992 1005.44 877.992 1009.8ZM889.527 1021V1000.2H892.367V1021H889.527ZM889.087 994C889.087 992.96 889.967 992.12 890.967 992.12C891.967 992.12 892.807 992.96 892.807 994C892.807 995 891.967 995.84 890.967 995.84C889.967 995.84 889.087 995 889.087 994ZM905.906 1021.4C900.106 1021.4 896.066 1017.92 896.066 1010.68C896.066 1003.12 900.386 999.8 905.706 999.8C911.066 999.8 914.906 1003.2 914.906 1010.04C914.906 1010.72 914.866 1011.12 914.786 1011.52H898.826C899.066 1016.6 901.546 1019.12 905.946 1019.12C908.466 1019.12 910.946 1018.28 912.026 1015.28H914.626C913.226 1019.88 909.706 1021.4 905.906 1021.4ZM898.866 1009.28H912.186C912.106 1004.6 909.626 1002.08 905.666 1002.08C901.906 1002.08 899.146 1004.4 898.866 1009.28ZM933.35 1008.76C933.35 1004.68 931.67 1002.24 927.75 1002.24C923.87 1002.24 921.39 1004.68 921.39 1008.76V1021H918.55V1000.2H921.39V1004.12C921.83 1002.72 923.95 999.8 928.67 999.8C932.75 999.8 936.19 1002 936.19 1008.2V1021H933.35V1008.76ZM949.816 1021.4C944.456 1021.4 939.816 1017.96 939.816 1010.64C939.816 1003.32 944.456 999.8 949.816 999.8C953.536 999.8 957.816 1001.48 958.576 1007.16H955.976C955.336 1003.52 952.576 1002.24 949.776 1002.24C945.616 1002.24 942.536 1005.12 942.536 1010.64C942.536 1016.16 945.616 1018.96 949.776 1018.96C952.576 1018.96 955.336 1017.68 955.976 1013.96H958.576C957.856 1019.72 953.536 1021.4 949.816 1021.4ZM970.75 1021.4C964.95 1021.4 960.91 1017.92 960.91 1010.68C960.91 1003.12 965.23 999.8 970.55 999.8C975.91 999.8 979.75 1003.2 979.75 1010.04C979.75 1010.72 979.71 1011.12 979.63 1011.52H963.67C963.91 1016.6 966.39 1019.12 970.79 1019.12C973.31 1019.12 975.79 1018.28 976.87 1015.28H979.47C978.07 1019.88 974.55 1021.4 970.75 1021.4ZM963.71 1009.28H977.03C976.95 1004.6 974.47 1002.08 970.51 1002.08C966.75 1002.08 963.99 1004.4 963.71 1009.28ZM999.653 1021.28C996.693 1021.28 994.573 1020.04 994.573 1016.32V1002.52H991.213V1000.2H994.573V995.04H997.413V1000.2H1001.53V1002.52H997.413V1015.76C997.413 1018.08 998.213 1018.92 1000.49 1018.92C1000.97 1018.92 1001.33 1018.92 1001.85 1018.84V1021.04C1001.21 1021.2 1000.49 1021.28 999.653 1021.28ZM1005.35 1021V993H1008.19V1004.12C1008.63 1002.72 1010.75 999.8 1015.47 999.8C1019.55 999.8 1022.99 1002 1022.99 1008.2V1021H1020.15V1008.76C1020.15 1004.68 1018.47 1002.24 1014.55 1002.24C1010.67 1002.24 1008.19 1004.68 1008.19 1008.76V1021H1005.35ZM1036.45 1021.4C1030.65 1021.4 1026.61 1017.92 1026.61 1010.68C1026.61 1003.12 1030.93 999.8 1036.25 999.8C1041.61 999.8 1045.45 1003.2 1045.45 1010.04C1045.45 1010.72 1045.41 1011.12 1045.33 1011.52H1029.37C1029.61 1016.6 1032.09 1019.12 1036.49 1019.12C1039.01 1019.12 1041.49 1018.28 1042.57 1015.28H1045.17C1043.77 1019.88 1040.25 1021.4 1036.45 1021.4ZM1029.41 1009.28H1042.73C1042.65 1004.6 1040.17 1002.08 1036.21 1002.08C1032.45 1002.08 1029.69 1004.4 1029.41 1009.28ZM1058.32 1021V993H1061.68L1076.96 1016.56H1077.04V993H1079.96V1021H1076.56L1061.36 997.52H1061.28V1021H1058.32ZM1093.48 1021.4C1087.68 1021.4 1083.64 1017.92 1083.64 1010.68C1083.64 1003.12 1087.96 999.8 1093.28 999.8C1098.64 999.8 1102.48 1003.2 1102.48 1010.04C1102.48 1010.72 1102.44 1011.12 1102.36 1011.52H1086.4C1086.64 1016.6 1089.12 1019.12 1093.52 1019.12C1096.04 1019.12 1098.52 1018.28 1099.6 1015.28H1102.2C1100.8 1019.88 1097.28 1021.4 1093.48 1021.4ZM1086.44 1009.28H1099.76C1099.68 1004.6 1097.2 1002.08 1093.24 1002.08C1089.48 1002.08 1086.72 1004.4 1086.44 1009.28ZM1109.95 1021L1103.95 1000.2H1106.75L1111.63 1018.04H1111.79L1117.59 1000.2H1120.11L1125.87 1018.04H1126.03L1130.95 1000.2H1133.71L1127.71 1021H1124.47L1118.83 1003.96L1113.19 1021H1109.95ZM905.218 1049L902.218 1038.6H903.618L906.058 1047.52H906.138L909.038 1038.6H910.298L913.178 1047.52H913.258L915.718 1038.6H917.098L914.098 1049H912.478L909.658 1040.48L906.838 1049H905.218ZM918.738 1049V1038.6H920.158V1049H918.738ZM918.518 1035.5C918.518 1034.98 918.958 1034.56 919.458 1034.56C919.958 1034.56 920.378 1034.98 920.378 1035.5C920.378 1036 919.958 1036.42 919.458 1036.42C918.958 1036.42 918.518 1036 918.518 1035.5ZM926.028 1049.14C924.548 1049.14 923.488 1048.52 923.488 1046.66V1039.76H921.808V1038.6H923.488V1036.02H924.908V1038.6H926.968V1039.76H924.908V1046.38C924.908 1047.54 925.308 1047.96 926.448 1047.96C926.688 1047.96 926.868 1047.96 927.128 1047.92V1049.02C926.808 1049.1 926.448 1049.14 926.028 1049.14ZM928.875 1049V1035H930.295V1040.56C930.515 1039.86 931.575 1038.4 933.935 1038.4C935.975 1038.4 937.695 1039.5 937.695 1042.6V1049H936.275V1042.88C936.275 1040.84 935.435 1039.62 933.475 1039.62C931.535 1039.62 930.295 1040.84 930.295 1042.88V1049H928.875ZM950.277 1049.2C946.857 1049.2 944.477 1047.44 944.477 1043.64H947.857C947.857 1045.46 948.797 1046.28 950.297 1046.28C951.817 1046.28 952.737 1045.44 952.737 1043.42V1035H956.097V1043.7C956.097 1047.46 953.677 1049.2 950.277 1049.2ZM956.629 1049L961.609 1035H965.949L970.949 1049H967.409L966.609 1046.62H960.949L960.149 1049H956.629ZM961.769 1044.14H965.789L963.889 1038.4H963.689L961.769 1044.14ZM972.27 1049V1035H976.51L979.79 1044.4L983.07 1035H987.33V1049H983.97V1040.76H983.85L981.03 1049H978.55L975.73 1040.76H975.61V1049H972.27ZM995.8 1049.2C991.66 1049.2 989.04 1046.2 989.04 1042C989.04 1037.78 991.66 1034.82 995.8 1034.82C999.94 1034.82 1002.58 1037.78 1002.58 1042C1002.58 1046.2 999.94 1049.2 995.8 1049.2ZM992.5 1042C992.5 1044.52 993.62 1046.3 995.8 1046.3C997.98 1046.3 999.1 1044.52 999.1 1042C999.1 1039.46 997.98 1037.72 995.8 1037.72C993.62 1037.72 992.5 1039.46 992.5 1042ZM1010.76 1049.2C1006.62 1049.2 1004 1046.2 1004 1042C1004 1037.78 1006.62 1034.82 1010.76 1034.82C1014.9 1034.82 1017.54 1037.78 1017.54 1042C1017.54 1046.2 1014.9 1049.2 1010.76 1049.2ZM1007.46 1042C1007.46 1044.52 1008.58 1046.3 1010.76 1046.3C1012.94 1046.3 1014.06 1044.52 1014.06 1042C1014.06 1039.46 1012.94 1037.72 1010.76 1037.72C1008.58 1037.72 1007.46 1039.46 1007.46 1042Z" fill="#523921"/>
</g>
<defs>
<linearGradient id="paint0_linear_225_67" x1="960" y1="0" x2="960" y2="1229" gradientUnits="userSpaceOnUse">
<stop offset="0.652767" stop-color="#F8FDDD"/>
<stop offset="1" stop-color="#96ACBD"/>
</linearGradient>
<linearGradient id="paint1_linear_225_67" x1="785.044" y1="-896.165" x2="785.044" y2="164.883" gradientUnits="userSpaceOnUse">
<stop stop-color="#27693C"/>
<stop offset="1" stop-color="#83B561"/>
</linearGradient>
<linearGradient id="paint2_linear_225_67" x1="1698.89" y1="-837.899" x2="1698.89" y2="327.413" gradientUnits="userSpaceOnUse">
<stop stop-color="#27693C"/>
<stop offset="1" stop-color="#83B561"/>
</linearGradient>
<linearGradient id="paint3_linear_225_67" x1="-16.8758" y1="-758.167" x2="-16.8758" y2="523.676" gradientUnits="userSpaceOnUse">
<stop stop-color="#27693C"/>
<stop offset="1" stop-color="#83B561"/>
</linearGradient>
<linearGradient id="paint4_linear_225_67" x1="553.304" y1="-564.226" x2="553.304" y2="435.489" gradientUnits="userSpaceOnUse">
<stop stop-color="#CFDF79"/>
<stop offset="1" stop-color="#778A0F"/>
</linearGradient>
<linearGradient id="paint5_linear_225_67" x1="311.239" y1="-878.438" x2="311.239" y2="-15.9973" gradientUnits="userSpaceOnUse">
<stop stop-color="#CFDF79"/>
<stop offset="1" stop-color="#778A0F"/>
</linearGradient>
<linearGradient id="paint6_linear_225_67" x1="1174.51" y1="-666.17" x2="1174.51" y2="195.548" gradientUnits="userSpaceOnUse">
<stop stop-color="#CFDF79"/>
<stop offset="1" stop-color="#778A0F"/>
</linearGradient>
<linearGradient id="paint7_linear_225_67" x1="1818.49" y1="-758.167" x2="1818.49" y2="103.55" gradientUnits="userSpaceOnUse">
<stop stop-color="#CFDF79"/>
<stop offset="1" stop-color="#778A0F"/>
</linearGradient>
<linearGradient id="paint8_linear_225_67" x1="1367.7" y1="51.418" x2="1367.7" y2="603.408" gradientUnits="userSpaceOnUse">
<stop stop-color="#CFDF79"/>
<stop offset="1" stop-color="#778A0F"/>
</linearGradient>
<linearGradient id="paint9_linear_225_67" x1="1088.64" y1="318.213" x2="1088.64" y2="680.074" gradientUnits="userSpaceOnUse">
<stop stop-color="#CFDF79"/>
<stop offset="1" stop-color="#778A0F"/>
</linearGradient>
<linearGradient id="paint10_linear_225_67" x1="185.53" y1="0" x2="185.53" y2="361.86" gradientUnits="userSpaceOnUse">
<stop stop-color="#CFDF79"/>
<stop offset="1" stop-color="#778A0F"/>
</linearGradient>
<linearGradient id="paint11_linear_225_67" x1="185.53" y1="0" x2="185.53" y2="361.86" gradientUnits="userSpaceOnUse">
<stop stop-color="#CFDF79"/>
<stop offset="1" stop-color="#778A0F"/>
</linearGradient>
<linearGradient id="paint12_linear_225_67" x1="282.128" y1="0" x2="282.128" y2="604.123" gradientUnits="userSpaceOnUse">
<stop stop-color="#CFDF79"/>
<stop offset="1" stop-color="#778A0F"/>
</linearGradient>
<linearGradient id="paint13_linear_225_67" x1="1358.5" y1="-196.978" x2="1951.89" y2="1170.73" gradientUnits="userSpaceOnUse">
<stop stop-color="#9A6549"/>
<stop offset="1" stop-color="#B2A299"/>
</linearGradient>
<linearGradient id="paint14_linear_225_67" x1="255.853" y1="91.2842" x2="-75.3414" y2="634.074" gradientUnits="userSpaceOnUse">
<stop stop-color="#9C694E"/>
<stop offset="1" stop-color="#CDAA98"/>
</linearGradient>
<linearGradient id="paint15_linear_225_67" x1="432.383" y1="499.144" x2="-39.8752" y2="1091" gradientUnits="userSpaceOnUse">
<stop stop-color="#99684F"/>
<stop offset="1" stop-color="#C39E8B"/>
</linearGradient>
<clipPath id="clip0_225_67">
<rect width="1920" height="1080" fill="white"/>
</clipPath>
</defs>
</svg>
